<svg xmlns="http://www.w3.org/2000/svg" version="1.1" width="351px" height="365px" style="shape-rendering:geometricPrecision; text-rendering:geometricPrecision; image-rendering:optimizeQuality; fill-rule:evenodd; clip-rule:evenodd" xmlns:xlink="http://www.w3.org/1999/xlink">
<g><path style="opacity:0.985" fill="#f05a27" d="M 335.5,129.5 C 329.256,130.458 322.923,130.791 316.5,130.5C 276.255,79.2624 225.255,64.7624 163.5,87C 148.26,94.0847 135.593,104.251 125.5,117.5C 101.006,116.502 76.339,116.169 51.5,116.5C 44.0958,99.5912 41.7625,82.0912 44.5,64C 57.13,58.7405 70.2967,55.9071 84,55.5C 95.4003,56.428 106.567,58.2614 117.5,61C 129.105,52.8651 141.772,46.8651 155.5,43C 161.138,24.2038 172.471,10.0371 189.5,0.5C 201.235,5.96016 210.402,14.2935 217,25.5C 219.107,30.0523 221.44,34.3856 224,38.5C 235.831,40.7216 247.331,44.055 258.5,48.5C 270.115,40.897 282.781,38.2304 296.5,40.5C 302.45,52.5354 304.617,65.2021 303,78.5C 317.364,93.2235 328.198,110.223 335.5,129.5 Z"/></g>
<g><path style="opacity:0.991" fill="#f06026" d="M 51.5,116.5 C 76.339,116.169 101.006,116.502 125.5,117.5C 122.486,122.203 119.486,126.87 116.5,131.5C 97.3405,130.503 78.0072,130.17 58.5,130.5C 55.6417,126.117 53.3084,121.45 51.5,116.5 Z"/></g>
<g><path style="opacity:0.986" fill="#f16724" d="M 282.5,146.5 C 247.167,146.5 211.833,146.5 176.5,146.5C 186.097,136.698 197.764,130.531 211.5,128C 233.882,124.676 254.882,128.676 274.5,140C 277.42,141.946 280.087,144.113 282.5,146.5 Z"/></g>
<g><path style="opacity:0.954" fill="#f16823" d="M 335.5,129.5 C 338.768,139.241 340.768,149.241 341.5,159.5C 337.988,158.945 334.988,159.612 332.5,161.5C 327.979,150.793 322.646,140.46 316.5,130.5C 322.923,130.791 329.256,130.458 335.5,129.5 Z"/></g>
<g><path style="opacity:0.988" fill="#f16624" d="M 58.5,130.5 C 78.0072,130.17 97.3405,130.503 116.5,131.5C 114.403,137.349 112.069,143.015 109.5,148.5C 92.79,146.816 75.79,145.816 58.5,145.5C 59.3928,142.32 60.3928,139.154 61.5,136C 60.8758,133.915 59.8758,132.082 58.5,130.5 Z"/></g>
<g><path style="opacity:0.984" fill="#f26d22" d="M 58.5,145.5 C 75.79,145.816 92.79,146.816 109.5,148.5C 108.537,153.05 107.203,157.383 105.5,161.5C 89.2002,159.515 72.5335,158.848 55.5,159.5C 56.1848,154.761 57.1848,150.095 58.5,145.5 Z"/></g>
<g><path style="opacity:0.984" fill="#f26f22" d="M 176.5,146.5 C 211.833,146.5 247.167,146.5 282.5,146.5C 292.619,153.619 300.619,162.619 306.5,173.5C 291.657,173.171 276.99,173.504 262.5,174.5C 242.313,155.961 219.979,152.794 195.5,165C 192,167.669 188.667,170.502 185.5,173.5C 176.167,173.5 166.833,173.5 157.5,173.5C 161.205,162.492 167.538,153.492 176.5,146.5 Z"/></g>
<g><path style="opacity:0.992" fill="#f27321" d="M 55.5,159.5 C 72.5335,158.848 89.2002,159.515 105.5,161.5C 105.212,164.939 104.546,168.272 103.5,171.5C 86.6617,173.162 69.6617,174.162 52.5,174.5C 53.2241,169.423 54.2241,164.423 55.5,159.5 Z"/></g>
<g><path style="opacity:0.921" fill="#f27421" d="M 341.5,159.5 C 342.811,165 342.811,170.5 341.5,176C 339.741,176.798 338.074,176.631 336.5,175.5C 334.853,170.909 333.519,166.243 332.5,161.5C 334.988,159.612 337.988,158.945 341.5,159.5 Z"/></g>
<g><path style="opacity:0.997" fill="#f37a1f" d="M 306.5,173.5 C 309.406,178.21 311.739,183.21 313.5,188.5C 300.202,188.811 287.202,189.811 274.5,191.5C 271.25,185.345 267.25,179.678 262.5,174.5C 276.99,173.504 291.657,173.171 306.5,173.5 Z"/></g>
<g><path style="opacity:0.993" fill="#f37a1f" d="M 103.5,171.5 C 103.002,176.152 102.669,180.819 102.5,185.5C 101.566,186.568 101.232,187.901 101.5,189.5C 78.5,189.5 55.5,189.5 32.5,189.5C 38.0548,183.052 44.7214,178.052 52.5,174.5C 69.6617,174.162 86.6617,173.162 103.5,171.5 Z"/></g>
<g><path style="opacity:0.985" fill="#f4801d" d="M 102.5,185.5 C 102.5,191.167 102.5,196.833 102.5,202.5C 75.1667,202.5 47.8333,202.5 20.5,202.5C 23.8709,197.467 27.8709,193.134 32.5,189.5C 55.5,189.5 78.5,189.5 101.5,189.5C 101.232,187.901 101.566,186.568 102.5,185.5 Z"/></g>
<g><path style="opacity:0.988" fill="#f4801d" d="M 313.5,188.5 C 315.297,193.354 316.631,198.354 317.5,203.5C 304.402,202.179 291.402,202.179 278.5,203.5C 276.997,199.659 275.664,195.659 274.5,191.5C 287.202,189.811 300.202,188.811 313.5,188.5 Z"/></g>
<g><path style="opacity:0.97" fill="#f37e1e" d="M 157.5,173.5 C 166.833,173.5 176.167,173.5 185.5,173.5C 178.887,182.001 175.22,191.668 174.5,202.5C 167.412,202.205 160.412,202.538 153.5,203.5C 152.882,193.215 154.215,183.215 157.5,173.5 Z"/></g>
<g><path style="opacity:0.993" fill="#f4861c" d="M 20.5,202.5 C 47.8333,202.5 75.1667,202.5 102.5,202.5C 103.393,206.856 104.393,211.189 105.5,215.5C 74.6621,215.831 43.9955,215.498 13.5,214.5C 15.0435,209.976 17.3768,205.976 20.5,202.5 Z"/></g>
<g><path style="opacity:0.985" fill="#f4861c" d="M 317.5,203.5 C 318.272,207.452 318.605,211.452 318.5,215.5C 305.5,215.5 292.5,215.5 279.5,215.5C 279.167,211.5 278.833,207.5 278.5,203.5C 291.402,202.179 304.402,202.179 317.5,203.5 Z"/></g>
<g><path style="opacity:0.992" fill="#f58c1a" d="M 13.5,214.5 C 43.9955,215.498 74.6621,215.831 105.5,215.5C 106.635,220.237 107.968,224.903 109.5,229.5C 76.1667,229.5 42.8333,229.5 9.5,229.5C 8.30541,229.134 7.63874,228.301 7.5,227C 8.86611,222.437 10.8661,218.271 13.5,214.5 Z"/></g>
<g><path style="opacity:0.967" fill="#f48a1b" d="M 174.5,202.5 C 174.329,212.321 177.329,220.987 183.5,228.5C 176.833,229.167 170.167,229.833 163.5,230.5C 157.825,222.486 154.491,213.486 153.5,203.5C 160.412,202.538 167.412,202.205 174.5,202.5 Z"/></g>
<g><path style="opacity:0.989" fill="#f58c1a" d="M 279.5,215.5 C 292.5,215.5 305.5,215.5 318.5,215.5C 319.678,220.021 319.678,224.688 318.5,229.5C 305.167,229.5 291.833,229.5 278.5,229.5C 278.833,224.833 279.167,220.167 279.5,215.5 Z"/></g>
<g><path style="opacity:0.993" fill="#f59218" d="M 9.5,229.5 C 42.8333,229.5 76.1667,229.5 109.5,229.5C 112.072,233.639 114.405,237.973 116.5,242.5C 85.6621,242.169 54.9955,242.502 24.5,243.5C 18.8714,239.539 13.8714,234.873 9.5,229.5 Z"/></g>
<g><path style="opacity:0.984" fill="#f59218" d="M 278.5,229.5 C 291.833,229.5 305.167,229.5 318.5,229.5C 318.351,230.552 318.517,231.552 319,232.5C 321.705,235.036 324.205,237.703 326.5,240.5C 309.532,242.486 292.199,243.153 274.5,242.5C 275.698,238.02 277.031,233.687 278.5,229.5 Z"/></g>
<g><path style="opacity:0.948" fill="#f69618" d="M 183.5,228.5 C 196.031,241.466 210.698,244.632 227.5,238C 234.906,237.542 236.24,240.209 231.5,246C 211.407,256.883 192.074,255.549 173.5,242C 169.584,238.59 166.251,234.757 163.5,230.5C 170.167,229.833 176.833,229.167 183.5,228.5 Z"/></g>
<g><path style="opacity:0.988" fill="#f69917" d="M 116.5,242.5 C 120.084,248.092 124.084,253.426 128.5,258.5C 102.833,258.5 77.1667,258.5 51.5,258.5C 41.3951,255.286 32.3951,250.286 24.5,243.5C 54.9955,242.502 85.6621,242.169 116.5,242.5 Z"/></g>
<g><path style="opacity:0.99" fill="#f69817" d="M 326.5,240.5 C 330.846,245.852 334.179,251.852 336.5,258.5C 313.167,258.5 289.833,258.5 266.5,258.5C 269.186,253.128 271.853,247.795 274.5,242.5C 292.199,243.153 309.532,242.486 326.5,240.5 Z"/></g>
<g><path style="opacity:0.981" fill="#f79f15" d="M 51.5,258.5 C 77.1667,258.5 102.833,258.5 128.5,258.5C 133.526,263.195 138.526,267.861 143.5,272.5C 121.327,272.169 99.327,272.503 77.5,273.5C 74.7798,271.083 72.7798,268.083 71.5,264.5C 64.5425,263.099 57.8758,261.099 51.5,258.5 Z"/></g>
<g><path style="opacity:0.988" fill="#f79f15" d="M 266.5,258.5 C 289.833,258.5 313.167,258.5 336.5,258.5C 337.084,261.67 337.75,264.837 338.5,268C 337.879,270.141 336.546,271.641 334.5,272.5C 307.812,273.158 281.479,272.491 255.5,270.5C 259.167,266.5 262.833,262.5 266.5,258.5 Z"/></g>
<g><path style="opacity:0.984" fill="#f7a513" d="M 255.5,270.5 C 281.479,272.491 307.812,273.158 334.5,272.5C 324.99,279.671 314.323,283.004 302.5,282.5C 301.712,283.77 300.712,284.77 299.5,285.5C 277.833,285.5 256.167,285.5 234.5,285.5C 241.99,281.249 248.99,276.249 255.5,270.5 Z"/></g>
<g><path style="opacity:0.986" fill="#f7a513" d="M 143.5,272.5 C 150.605,276.943 157.938,280.943 165.5,284.5C 139.339,285.498 113.005,285.831 86.5,285.5C 82.7376,282.071 79.7376,278.071 77.5,273.5C 99.327,272.503 121.327,272.169 143.5,272.5 Z"/></g>
<g><path style="opacity:0.988" fill="#f8ab12" d="M 165.5,284.5 C 188.421,293.287 211.421,293.62 234.5,285.5C 256.167,285.5 277.833,285.5 299.5,285.5C 298.928,287.255 298.094,288.922 297,290.5C 294.613,293.957 291.78,296.957 288.5,299.5C 222.833,299.5 157.167,299.5 91.5,299.5C 92.167,297.181 92.3336,294.847 92,292.5C 89.5705,290.578 87.7372,288.245 86.5,285.5C 113.005,285.831 139.339,285.498 165.5,284.5 Z"/></g>
<g><path style="opacity:0.997" fill="#f8b110" d="M 91.5,299.5 C 157.167,299.5 222.833,299.5 288.5,299.5C 286.757,302.75 284.423,305.584 281.5,308C 277.957,311.049 274.291,313.882 270.5,316.5C 240.674,315.167 210.507,314.5 180,314.5C 149.429,314.504 118.929,314.837 88.5,315.5C 88.9556,309.939 89.9556,304.606 91.5,299.5 Z"/></g>
<g><path style="opacity:0.997" fill="#f9b80e" d="M 270.5,316.5 C 269.883,316.611 269.383,316.944 269,317.5C 268.823,321.356 268.323,325.023 267.5,328.5C 208.167,328.5 148.833,328.5 89.5,328.5C 88.6274,324.232 88.2941,319.898 88.5,315.5C 118.929,314.837 149.429,314.504 180,314.5C 210.507,314.5 240.674,315.167 270.5,316.5 Z"/></g>
<g><path style="opacity:0.99" fill="#fabe0d" d="M 89.5,328.5 C 148.833,328.5 208.167,328.5 267.5,328.5C 266.806,333.915 265.14,338.915 262.5,343.5C 244.53,341.513 226.197,340.846 207.5,341.5C 207.389,340.883 207.056,340.383 206.5,340C 195.8,339.331 185.133,338.331 174.5,337C 167.408,336.019 160.575,334.186 154,331.5C 136.23,344.235 116.397,350.069 94.5,349C 91.659,342.469 89.9924,335.636 89.5,328.5 Z"/></g>
<g><path style="opacity:0.982" fill="#fac50b" d="M 207.5,341.5 C 226.197,340.846 244.53,341.513 262.5,343.5C 259.304,350.717 254.97,357.217 249.5,363C 232.363,361.931 218.363,354.765 207.5,341.5 Z"/></g>
</svg>
